<?xml version="1.0" encoding="utf-8"?>
<!-- Generator: Adobe Illustrator 22.0.1, SVG Export Plug-In . SVG Version: 6.00 Build 0)  -->
<svg version="1.1" id="Layer_1" xmlns="http://www.w3.org/2000/svg" xmlns:xlink="http://www.w3.org/1999/xlink" x="0px" y="0px"
	 viewBox="0 0 831 600" enable-background="new 0 0 831 600" xml:space="preserve">
<g>
	<polygon fill="#85B1DD" points="82.2,390.12 118.4,386.89 125.94,347.61 89.74,350.84 	"/>
	<polygon fill="#275893" points="112.82,340.87 149.02,337.64 156.57,298.35 120.37,301.58 	"/>
	<polygon fill="#85B1DD" points="143.58,291.42 179.78,288.19 187.33,248.91 151.13,252.14 	"/>
	<polygon fill="#85B1DD" points="131.97,364.76 168.17,361.53 175.72,322.25 139.51,325.48 	"/>
	<polygon fill="#275893" points="162.68,315.33 198.88,312.1 206.42,272.82 170.22,276.05 	"/>
	<polygon fill="#275893" points="174.19,242.99 210.39,239.77 217.93,200.48 181.73,203.71 	"/>
	<polygon fill="#85B1DD" points="193.2,267.35 229.4,264.12 236.94,224.83 200.74,228.06 	"/>
	<polygon fill="#85B1DD" points="181.75,339.34 217.96,336.11 225.5,296.83 189.3,300.06 	"/>
	<polygon fill="#275893" points="212.29,291.27 248.49,288.04 256.04,248.76 219.83,251.99 	"/>
	<polygon fill="#85B1DD" points="231.37,315.27 267.57,312.04 275.12,272.75 238.91,275.98 	"/>
</g>
<g>
	<path fill="#1D1D1D" d="M290.51,247.62h31.01c21.02,0,35.08,7.8,35.08,27.12c0,27.29-20.17,39.32-48.47,39.32h-17.79l-8.98,44.74
		h-13.05L290.51,247.62z M308.13,303.38c23.05,0,35.25-9.15,35.25-26.95c0-12.88-8.64-18.3-25.25-18.3h-16.78l-8.81,45.25H308.13z"
		/>
	<path fill="#1D1D1D" d="M353.04,329.31c0-29.49,20.17-54.91,45.25-54.91c11.69,0,20.68,4.92,25.25,12.37h0.68l3.22-10.34h10.51
		l-16.44,82.37h-10.68l1.36-12.54h-0.68c-8.64,8.81-19.66,14.58-30.17,14.58C364.23,360.83,353.04,349.82,353.04,329.31z
		 M413.55,334.05l7.62-36.61c-5.59-8.64-13.39-12.2-21.18-12.2c-18.81,0-33.56,20-33.56,42.03c0,15.59,7.29,22.71,18.81,22.71
		C394.23,349.99,404.57,344.39,413.55,334.05z"/>
	<path fill="#1D1D1D" d="M461.85,276.43h10.68l-3.56,23.56h0.68c9.15-14.07,22.54-25.59,36.78-25.59c7.29,0,12.71,1.53,16.61,4.24
		l-5.08,11.19c-4.24-2.71-8.3-3.56-13.73-3.56c-12.71,0-25.93,12.03-37.29,29.66l-8.64,42.88h-12.88L461.85,276.43z"/>
	<path fill="#1D1D1D" d="M523.02,345.75l7.46-8.3c8.13,9.15,19.49,13.22,31.35,13.22c11.53,0,20-3.9,20-13.05
		c0-7.97-7.97-11.19-21.69-15.76c-17.12-5.76-24.74-12.71-24.74-24.07c0-15.76,14.07-23.39,30.85-23.39
		c15.76,0,27.46,6.44,34.4,13.39l-7.29,7.97c-6.78-5.76-16.27-11.19-28.47-11.19c-10.68,0-17.12,4.41-17.12,11.69
		c0,7.63,7.12,11.02,20.34,15.59c15.42,5.25,26.1,10.68,26.1,24.07c0,17.8-15.42,24.91-34.74,24.91
		C545.23,360.83,530.99,354.9,523.02,345.75z"/>
	<path fill="#1D1D1D" d="M621.32,338.97c0-2.88,0.34-5.59,1.19-9.15l17.12-81.18h-27.46l2.2-10.51h40.17l-19.32,92.2
		c-0.51,2.54-0.85,5.08-0.85,7.46c0,8.47,4.91,12.2,12.54,12.2c5.42,0,10.17-1.53,16.1-4.58l3.22,10
		c-7.29,3.56-14.74,5.42-22.88,5.42C630.64,360.83,621.32,353.38,621.32,338.97z"/>
</g>
</svg>
