<?xml version="1.0" encoding="utf-8"?>
<!-- Generator: Adobe Illustrator 22.0.1, SVG Export Plug-In . SVG Version: 6.00 Build 0)  -->
<svg version="1.1" xmlns="http://www.w3.org/2000/svg" xmlns:xlink="http://www.w3.org/1999/xlink" x="0px" y="0px"
	 viewBox="0 0 800 400" enable-background="new 0 0 800 400" xml:space="preserve">
<g id="Layer_1">
	<g>
		<path fill="#1D1D1D" d="M284.76562,176.45117h11.52441l-0.66602,10.50781h0.50879
			c8.91064-7.28711,20.51465-12.54102,30.68262-12.54102c22.20215,0,31.16699,16.43945,26.6543,42.03027
			c-4.93066,27.96289-25.45508,44.40137-45.28418,44.40137c-7.62598,0-16.59863-3.89746-22.69141-10.67578h-0.50781
			l-2.07178,15.59082l-4.90088,27.79395h-13.89746L284.76562,176.45117z M339.06445,216.44824
			c3.19775-18.13379-1.42969-30.33691-17.86914-30.33691c-7.28809,0-16.44922,3.89844-26.41699,12.37207l-7.23193,41.0127
			c6.5708,6.94824,14.73633,9.66016,20.3291,9.66016C322.61963,249.15625,335.47852,236.78418,339.06445,216.44824z"/>
		<path fill="#1D1D1D" d="M356.70996,237.46289c3.25732-18.47266,21.95898-27.45508,65.0957-30.84473
			c1.63379-11.18555-2.28613-20.67578-18.21777-20.67578c-10.67627,0-22.08057,5.08398-30.54443,9.8291l-3.74951-9.49023
			c9.26123-5.42285,24.29297-11.86328,38.69922-11.86328c22.54102,0,31.02734,13.38867,27.41113,33.89551l-8.90527,50.50293
			h-11.35547l0.78613-11.18555h-0.50781c-10.4082,7.11816-23.17773,13.21875-34.87109,13.21875
			C365.12793,260.84961,354.10986,252.20703,356.70996,237.46289z M416.36719,237.46289l3.8252-21.69336
			c-35.76025,2.88086-47.83203,9.83008-49.74463,20.67578c-1.64355,9.32129,6.3125,13.21973,15.80371,13.21973
			C395.57275,249.66504,405.6709,245.25879,416.36719,237.46289z"/>
		<path fill="#1D1D1D" d="M463.2207,176.45117h11.52441l-2.25,19.49023h0.50781
			c10.97461-13.21875,25.31934-21.52344,40.57227-21.52344c6.10156,0,11.03613,0.84766,15.67285,3.38965l-5.3418,12.03223
			c-5.40332-2.0332-8.30469-2.88086-14.74512-2.88086c-12.37207,0-25.20215,6.44043-38.0498,23.55664l-8.5166,48.30078h-13.89746
			L463.2207,176.45117z"/>
		<path fill="#1D1D1D" d="M522.63477,247.96973l8.05469-9.15137c8.29492,6.7793,18.53516,11.18555,33.78711,11.18555
			c13.89844,0,21.89258-5.93164,23.11719-12.87988c1.10547-6.27051-1.50684-10.67773-23.07129-15.25293
			c-20.57715-4.40625-30.13965-11.69434-27.95801-24.06543c2.33105-13.21973,15.81836-23.3877,38.35938-23.3877
			c12.54102,0,24.2168,4.91504,31.36523,10.50781l-8.36328,8.98145c-6.7002-5.25293-15.59277-8.64258-26.10059-8.64258
			c-14.06738,0-19.96777,5.59277-21.07324,11.86328c-1.25586,7.11719,5.3252,10.16797,21.47559,13.72754
			c26.40918,5.93164,31.79395,12.87988,29.58301,25.4209c-2.36133,13.38867-17.38281,24.57324-40.94043,24.57324
			C544.76953,260.84961,531.40918,254.91895,522.63477,247.96973z"/>
		<path fill="#1D1D1D" d="M629.99023,231.19238l14.4043-81.68652h-28.13477l2.00293-11.35547h42.03125l-16.58496,94.05859
			c-2.12207,12.03223,3.42188,17.11719,13.25098,17.11719c4.74609,0,10.03906-1.18652,16.08008-3.72852l1.7373,10.33789
			c-8.19531,3.21973-13.91699,4.91406-22.89941,4.91406C634.4209,260.84961,626.55371,250.68164,629.99023,231.19238z"/>
	</g>
	<g>
		<polygon fill="#85B1DD" points="84.19704,277.11884 120.3988,273.88895 127.9433,234.60689 91.74154,237.83676 		"/>
		<polygon fill="#275893" points="114.82224,227.86526 151.024,224.63539 158.5685,185.35333 122.36673,188.58321 		"/>
		<polygon fill="#85B1DD" points="145.58124,178.42015 181.783,175.19028 189.3275,135.90822 153.12573,139.13809 		"/>
		<polygon fill="#85B1DD" points="133.96986,251.75978 170.17162,248.52991 177.71611,209.24783 141.51436,212.47771 		"/>
		<polygon fill="#275893" points="164.6772,202.33107 200.87897,199.1012 208.42346,159.81912 172.22169,163.049 		"/>
		<polygon fill="#275893" points="176.18523,129.99496 212.38699,126.7651 219.93149,87.48303 183.72972,90.71291 		"/>
		<polygon fill="#85B1DD" points="195.19664,154.34613 231.39839,151.11627 238.94289,111.8342 202.74113,115.06407 		"/>
		<polygon fill="#85B1DD" points="183.75447,226.33934 219.95622,223.10947 227.50072,183.82741 191.29897,187.05728 		"/>
		<polygon fill="#275893" points="214.29008,178.27014 250.49184,175.04027 258.03635,135.75821 221.83458,138.98808 		"/>
		<polygon fill="#85B1DD" points="233.36986,202.26534 269.57162,199.03546 277.11612,159.75339 240.91435,162.98326 		"/>
	</g>
</g>
<g id="Layer_2">
</g>
</svg>
